HIERARCHY
ROOT Hips
{
  OFFSET 0.000 72.381 0.000
  CHANNELS 6 Xposition Yposition Zposition Zrotation Xrotation Yrotation
  JOINT LeftUpLeg
  {
    OFFSET 5.318 0.828 2.686
    CHANNELS 6 Xposition Yposition Zposition Zrotation Xrotation Yrotation
    JOINT LeftLeg
    {
      OFFSET 0.000 -37.162 0.000
      CHANNELS 6 Xposition Yposition Zposition Zrotation Xrotation Yrotation
      JOINT LeftFoot
      {
        OFFSET 0.000 -36.048 0.000
        CHANNELS 6 Xposition Yposition Zposition Zrotation Xrotation Yrotation
        End Site
        {
          OFFSET 0.000 0.000 12.100
        }
      }
    }
  }
  JOINT RightUpLeg
  {
    OFFSET -5.318 0.828 2.686
    CHANNELS 6 Xposition Yposition Zposition Zrotation Xrotation Yrotation
    JOINT RightLeg
    {
      OFFSET 0.000 -37.162 0.000
      CHANNELS 6 Xposition Yposition Zposition Zrotation Xrotation Yrotation
      JOINT RightFoot
      {
        OFFSET 0.000 -36.048 0.000
        CHANNELS 6 Xposition Yposition Zposition Zrotation Xrotation Yrotation
        End Site
        {
          OFFSET 0.000 0.000 12.100
        }
      }
    }
  }
  JOINT Spine
  {
    OFFSET 0.000 34.300 0.000
    CHANNELS 6 Xposition Yposition Zposition Zrotation Xrotation Yrotation
    JOINT Spine1
    {
      OFFSET 0.000 23.279 0.000
      CHANNELS 6 Xposition Yposition Zposition Zrotation Xrotation Yrotation
      JOINT LeftShoulder
      {
        OFFSET 0.209 -0.701 1.146
        CHANNELS 6 Xposition Yposition Zposition Zrotation Xrotation Yrotation
        JOINT LeftArm
        {
          OFFSET 12.735 0.000 0.000
          CHANNELS 6 Xposition Yposition Zposition Zrotation Xrotation Yrotation
          JOINT LeftForeArm
          {
            OFFSET 24.910 0.000 0.000
            CHANNELS 6 Xposition Yposition Zposition Zrotation Xrotation Yrotation
            JOINT LeftHand
            {
              OFFSET 22.804 0.000 0.000
              CHANNELS 6 Xposition Yposition Zposition Zrotation Xrotation Yrotation
              JOINT LeftHandThumb1
              {
                OFFSET 4.877 -1.044 3.608
                CHANNELS 6 Xposition Yposition Zposition Zrotation Xrotation Yrotation
                JOINT LeftHandThumb2
                {
                  OFFSET 2.665 -0.000 -0.000
                  CHANNELS 6 Xposition Yposition Zposition Zrotation Xrotation Yrotation
                  JOINT LeftHandThumb3
                  {
                    OFFSET 2.543 0.000 0.000
                    CHANNELS 6 Xposition Yposition Zposition Zrotation Xrotation Yrotation
                    End Site
                    {
                      OFFSET 2.667 -0.000 -0.000
                    }
                  }
                }
              }
              JOINT LeftHandIndex1
              {
                OFFSET 9.232 -0.301 2.144
                CHANNELS 6 Xposition Yposition Zposition Zrotation Xrotation Yrotation
                JOINT LeftHandIndex2
                {
                  OFFSET 4.225 0.000 0.000
                  CHANNELS 6 Xposition Yposition Zposition Zrotation Xrotation Yrotation
                  JOINT LeftHandIndex3
                  {
                    OFFSET 2.654 -0.000 0.000
                    CHANNELS 6 Xposition Yposition Zposition Zrotation Xrotation Yrotation
                    End Site
                    {
                      OFFSET 1.958 0.000 -0.000
                    }
                  }
                }
              }
              JOINT LeftHandMiddle1
              {
                OFFSET 8.920 0.000 -0.000
                CHANNELS 6 Xposition Yposition Zposition Zrotation Xrotation Yrotation
                JOINT LeftHandMiddle2
                {
                  OFFSET 4.863 0.000 -0.000
                  CHANNELS 6 Xposition Yposition Zposition Zrotation Xrotation Yrotation
                  JOINT LeftHandMiddle3
                  {
                    OFFSET 2.765 0.000 0.000
                    CHANNELS 6 Xposition Yposition Zposition Zrotation Xrotation Yrotation
                    End Site
                    {
                      OFFSET 2.006 0.000 -0.000
                    }
                  }
                }
              }
              JOINT LeftHandRing1
              {
                OFFSET 8.689 -0.126 -2.087
                CHANNELS 6 Xposition Yposition Zposition Zrotation Xrotation Yrotation
                JOINT LeftHandRing2
                {
                  OFFSET 4.538 -0.000 -0.000
                  CHANNELS 6 Xposition Yposition Zposition Zrotation Xrotation Yrotation
                  JOINT LeftHandRing3
                  {
                    OFFSET 2.305 0.000 -0.000
                    CHANNELS 6 Xposition Yposition Zposition Zrotation Xrotation Yrotation
                    End Site
                    {
                      OFFSET 1.923 -0.000 -0.000
                    }
                  }
                }
              }
              JOINT LeftHandPinky1
              {
                OFFSET 8.391 -0.817 -3.758
                CHANNELS 6 Xposition Yposition Zposition Zrotation Xrotation Yrotation
                JOINT LeftHandPinky2
                {
                  OFFSET 3.044 0.000 0.000
                  CHANNELS 6 Xposition Yposition Zposition Zrotation Xrotation Yrotation
                  JOINT LeftHandPinky3
                  {
                    OFFSET 1.975 0.000 -0.000
                    CHANNELS 6 Xposition Yposition Zposition Zrotation Xrotation Yrotation
                    End Site
                    {
                      OFFSET 1.667 -0.000 0.000
                    }
                  }
                }
              }
            }
          }
        }
      }
      JOINT RightShoulder
      {
        OFFSET -0.209 -0.701 1.146
        CHANNELS 6 Xposition Yposition Zposition Zrotation Xrotation Yrotation
        JOINT RightArm
        {
          OFFSET -12.735 0.000 0.000
          CHANNELS 6 Xposition Yposition Zposition Zrotation Xrotation Yrotation
          JOINT RightForeArm
          {
            OFFSET -24.910 0.000 0.000
            CHANNELS 6 Xposition Yposition Zposition Zrotation Xrotation Yrotation
            JOINT RightHand
            {
              OFFSET -22.804 0.000 0.000
              CHANNELS 6 Xposition Yposition Zposition Zrotation Xrotation Yrotation
              JOINT RightHandThumb1
              {
                OFFSET -4.877 -1.044 3.608
                CHANNELS 6 Xposition Yposition Zposition Zrotation Xrotation Yrotation
                JOINT RightHandThumb2
                {
                  OFFSET -2.665 -0.000 -0.000
                  CHANNELS 6 Xposition Yposition Zposition Zrotation Xrotation Yrotation
                  JOINT RightHandThumb3
                  {
                    OFFSET -2.543 0.000 0.000
                    CHANNELS 6 Xposition Yposition Zposition Zrotation Xrotation Yrotation
                    End Site
                    {
                      OFFSET -2.667 -0.000 0.000
                    }
                  }
                }
              }
              JOINT RightHandIndex1
              {
                OFFSET -9.232 -0.301 2.144
                CHANNELS 6 Xposition Yposition Zposition Zrotation Xrotation Yrotation
                JOINT RightHandIndex2
                {
                  OFFSET -4.225 0.000 0.000
                  CHANNELS 6 Xposition Yposition Zposition Zrotation Xrotation Yrotation
                  JOINT RightHandIndex3
                  {
                    OFFSET -2.654 -0.000 0.000
                    CHANNELS 6 Xposition Yposition Zposition Zrotation Xrotation Yrotation
                    End Site
                    {
                      OFFSET -1.958 0.000 0.000
                    }
                  }
                }
              }
              JOINT RightHandMiddle1
              {
                OFFSET -8.920 -0.000 0.000
                CHANNELS 6 Xposition Yposition Zposition Zrotation Xrotation Yrotation
                JOINT RightHandMiddle2
                {
                  OFFSET -4.863 0.000 0.000
                  CHANNELS 6 Xposition Yposition Zposition Zrotation Xrotation Yrotation
                  JOINT RightHandMiddle3
                  {
                    OFFSET -2.765 0.000 -0.000
                    CHANNELS 6 Xposition Yposition Zposition Zrotation Xrotation Yrotation
                    End Site
                    {
                      OFFSET -2.006 0.000 -0.000
                    }
                  }
                }
              }
              JOINT RightHandRing1
              {
                OFFSET -8.689 -0.126 -2.087
                CHANNELS 6 Xposition Yposition Zposition Zrotation Xrotation Yrotation
                JOINT RightHandRing2
                {
                  OFFSET -4.538 0.000 0.000
                  CHANNELS 6 Xposition Yposition Zposition Zrotation Xrotation Yrotation
                  JOINT RightHandRing3
                  {
                    OFFSET -2.305 0.000 0.000
                    CHANNELS 6 Xposition Yposition Zposition Zrotation Xrotation Yrotation
                    End Site
                    {
                      OFFSET -1.923 -0.000 0.000
                    }
                  }
                }
              }
              JOINT RightHandPinky1
              {
                OFFSET -8.391 -0.817 -3.758
                CHANNELS 6 Xposition Yposition Zposition Zrotation Xrotation Yrotation
                JOINT RightHandPinky2
                {
                  OFFSET -3.044 0.000 0.000
                  CHANNELS 6 Xposition Yposition Zposition Zrotation Xrotation Yrotation
                  JOINT RightHandPinky3
                  {
                    OFFSET -1.975 0.000 0.000
                    CHANNELS 6 Xposition Yposition Zposition Zrotation Xrotation Yrotation
                    End Site
                    {
                      OFFSET -1.667 0.000 0.000
                    }
                  }
                }
              }
            }
          }
        }
      }
      JOINT Neck
      {
        OFFSET 0.000 0.800 0.000
        CHANNELS 6 Xposition Yposition Zposition Zrotation Xrotation Yrotation
        JOINT Head
        {
          OFFSET 0.000 6.854 0.000
          CHANNELS 6 Xposition Yposition Zposition Zrotation Xrotation Yrotation
          End Site
          {
            OFFSET 0.000 13.197 0.000
          }
        }
      }
    }
  }
}
MOTION
Frames:	4
Frame Time:	0.033333
-56.20990 79.32460 -184.62598 -6.11732 0.24758 23.34152 3.65586 2.67791 3.35658 9.93355 -6.04058 7.17930 0.36642 -41.45973 -0.81428 -5.85075 1.88707 -67.52775 0.07990 -32.55979 -0.59114 -8.03910 6.34760 27.92531 -4.75346 -0.90835 3.66618 4.04570 3.59007 -0.09940 -0.05020 -38.19802 -0.53226 37.93378 -31.25583 -51.06858 -0.42819 -36.07072 -0.41571 26.02287 30.93385 -43.31187 0.18092 32.98486 -0.02023 0.93117 1.96844 -11.06739 0.28306 23.79177 -0.15505 -0.08095 1.90995 -10.52347 -0.08539 -0.46641 1.02782 -1.05410 22.65411 -89.01138 10.23782 -0.11346 -0.11074 -44.27422 -22.03931 -0.98199 25.10464 -0.16543 0.03963 -2.68253 -36.02305 3.27447 23.17758 -0.35476 0.29224 23.07011 -72.07413 18.81179 4.87700 -1.04399 3.60799 -41.57225 -8.45198 -7.73349 2.66500 -0.00002 -0.00001 -0.00000 0.00000 5.00531 2.54300 0.00000 0.00000 -0.00000 0.00000 59.99583 9.23200 -0.30100 2.14399 -79.99659 0.00000 0.00000 4.22499 0.00000 0.00000 -89.99631 0.00000 0.00000 2.65399 -0.00002 0.00001 -69.99628 0.00499 -0.00481 8.92000 0.00000 -0.00001 -79.99659 0.00000 0.00000 4.86299 0.00000 -0.00001 -89.99631 0.00000 0.00000 2.76500 0.00000 0.00001 -69.99628 0.00499 -0.00481 8.68900 -0.12600 -2.08699 -79.99659 0.00000 0.00000 4.53799 -0.00002 -0.00003 -89.99631 0.00000 0.00000 2.30499 0.00000 -0.00002 -69.99628 0.00499 -0.00481 8.39100 -0.81699 -3.75801 -79.99659 0.00000 0.00000 3.04400 0.00000 0.00001 -89.99631 0.00000 0.00000 1.97499 0.00002 -0.00001 -69.99628 0.00499 -0.00481 -0.66823 -0.87357 0.45864 28.56046 7.35159 14.33485 -10.39111 -3.23577 2.89779 107.18907 -50.74340 51.95281 -24.53289 0.16942 0.85052 8.47509 36.66287 -17.16065 -22.43982 3.73483 1.49148 -21.08333 73.25310 18.76416 -4.87700 -1.04402 3.60801 37.43343 21.26193 8.21122 -2.66500 -0.00003 -0.00002 0.00000 0.00000 -5.00507 -2.54300 0.00001 0.00002 -0.00000 0.00000 -59.99599 -9.23199 -0.30104 2.14400 79.99648 -0.00000 -0.00000 -4.22500 0.00002 0.00000 89.99616 0.00000 -0.00000 -2.65399 -0.00001 0.00000 69.99606 0.00477 0.00466 -8.92000 -0.00002 0.00002 79.99464 -0.00000 0.00001 -4.86300 0.00000 0.00000 89.99646 -0.00000 0.00001 -2.76501 0.00000 -0.00002 69.99641 0.00477 0.00466 -8.68899 -0.12603 -2.08697 79.99464 -0.00000 0.00001 -4.53800 0.00000 0.00000 89.99646 -0.00000 0.00001 -2.30500 0.00000 0.00000 69.99641 0.00477 0.00466 -8.39099 -0.81702 -3.75798 79.99648 -0.00000 -0.00000 -3.04400 0.00000 0.00000 89.99616 0.00000 -0.00000 -1.97500 0.00000 0.00002 69.99606 0.00477 0.00466 0.00594 0.77503 -0.01123 0.00007 -0.00001 0.00000 0.03020 6.92918 -0.10770 39.86266 -25.99159 -17.55004 
-57.43021 79.11480 -185.70859 -5.90158 0.80004 31.31297 3.19161 2.60094 3.15141 5.72942 -8.53473 -1.19404 0.23562 -41.68550 -0.56724 -0.64439 1.30621 -54.87807 -0.15969 -31.89894 -0.72179 -9.22004 8.53940 29.56243 -5.33248 -0.84592 3.51666 4.05475 3.33579 -4.41597 -0.08639 -38.85730 -0.46273 36.32227 -35.76618 -48.57026 -0.28349 -34.63650 -0.42183 6.95893 41.97340 -14.44730 0.17892 33.10398 0.05982 1.06271 1.52773 -7.36028 0.24906 23.93677 -0.02648 0.44031 1.95130 -6.55004 -0.42597 -0.38654 0.85855 6.90933 18.44308 -114.73188 9.19405 -0.23840 -0.21501 -44.69595 -25.61967 1.44940 25.24257 -0.15495 0.00995 -5.07616 -38.52640 0.73150 23.59889 -0.44372 0.27259 34.78682 -79.95152 30.94062 4.87700 -1.04399 3.60799 -41.57225 -8.45198 -7.73349 2.66500 -0.00002 -0.00001 -0.00000 0.00000 5.00531 2.54300 0.00000 0.00000 -0.00000 0.00000 59.99583 9.23200 -0.30100 2.14399 -79.99659 0.00000 0.00000 4.22499 0.00000 0.00000 -89.99631 0.00000 0.00000 2.65399 -0.00002 0.00001 -69.99628 0.00499 -0.00481 8.92000 0.00000 -0.00001 -79.99659 0.00000 0.00000 4.86299 0.00000 -0.00001 -89.99631 0.00000 0.00000 2.76500 0.00000 0.00001 -69.99628 0.00499 -0.00481 8.68900 -0.12600 -2.08699 -79.99659 0.00000 0.00000 4.53799 -0.00002 -0.00003 -89.99631 0.00000 0.00000 2.30499 0.00000 -0.00002 -69.99628 0.00499 -0.00481 8.39100 -0.81699 -3.75801 -79.99659 0.00000 0.00000 3.04400 0.00000 0.00001 -89.99631 0.00000 0.00000 1.97499 0.00002 -0.00001 -69.99628 0.00499 -0.00481 -0.90414 -0.87899 0.51118 28.23028 5.25638 10.81760 -12.24378 -2.39703 3.14871 84.59780 -46.26862 36.47116 -24.52975 0.83267 1.61874 5.69808 32.74313 -10.55196 -23.02552 3.21650 1.30282 -8.20509 58.80561 4.66425 -4.87700 -1.04402 3.60801 37.43343 21.26193 8.21122 -2.66500 -0.00003 -0.00002 0.00000 0.00000 -5.00507 -2.54300 0.00001 0.00002 -0.00000 0.00000 -59.99599 -9.23199 -0.30104 2.14400 79.99648 -0.00000 -0.00000 -4.22500 0.00002 0.00000 89.99616 0.00000 -0.00000 -2.65399 -0.00001 0.00000 69.99606 0.00477 0.00466 -8.92000 -0.00002 0.00002 79.99464 -0.00000 0.00001 -4.86300 0.00000 0.00000 89.99646 -0.00000 0.00001 -2.76501 0.00000 -0.00002 69.99641 0.00477 0.00466 -8.68899 -0.12603 -2.08697 79.99464 -0.00000 0.00001 -4.53800 0.00000 0.00000 89.99646 -0.00000 0.00001 -2.30500 0.00000 0.00000 69.99641 0.00477 0.00466 -8.39099 -0.81702 -3.75798 79.99648 -0.00000 -0.00000 -3.04400 0.00000 0.00000 89.99616 0.00000 -0.00000 -1.97500 0.00000 0.00002 69.99606 0.00477 0.00466 0.00610 0.77454 -0.00415 0.00007 -0.00001 0.00000 0.05580 6.99487 -0.05274 35.53030 -34.74693 -30.34523 
-58.59166 79.17863 -186.69313 -5.60845 1.09416 25.95884 3.54102 2.43117 2.91234 4.25963 -8.40146 6.29195 0.20200 -41.91300 -0.30781 -3.18973 6.80970 -48.84617 -0.04840 -30.89090 0.22033 -8.56128 15.88928 18.86290 -5.08961 -0.41818 3.12105 3.13721 2.09024 6.41919 0.10783 -39.38277 -0.24328 22.30021 -26.38028 -38.10761 0.18033 -31.49115 3.83905 1.76575 48.35302 25.18330 0.12548 33.09587 0.00442 0.74151 1.71414 -0.88147 0.18655 23.98657 -0.00751 0.51139 2.08147 0.13321 -0.48540 -0.39418 0.74455 11.86901 19.88133 -124.21019 8.61956 -0.10161 -0.13369 -40.87705 -21.43883 -2.21053 25.19375 -0.33237 0.08933 -5.46029 -35.13533 -0.22139 23.88357 -0.64663 0.15047 137.71693 -82.16051 136.18495 4.87700 -1.04399 3.60799 -41.57225 -8.45198 -7.73349 2.66500 -0.00002 -0.00001 -0.00000 0.00000 5.00531 2.54300 0.00000 0.00000 -0.00000 0.00000 59.99583 9.23200 -0.30100 2.14399 -79.99659 0.00000 0.00000 4.22499 0.00000 0.00000 -89.99631 0.00000 0.00000 2.65399 -0.00002 0.00001 -69.99628 0.00499 -0.00481 8.92000 0.00000 -0.00001 -79.99659 0.00000 0.00000 4.86299 0.00000 -0.00001 -89.99631 0.00000 0.00000 2.76500 0.00000 0.00001 -69.99628 0.00499 -0.00481 8.68900 -0.12600 -2.08699 -79.99659 0.00000 0.00000 4.53799 -0.00002 -0.00003 -89.99631 0.00000 0.00000 2.30499 0.00000 -0.00002 -69.99628 0.00499 -0.00481 8.39100 -0.81699 -3.75801 -79.99659 0.00000 0.00000 3.04400 0.00000 0.00001 -89.99631 0.00000 0.00000 1.97499 0.00002 -0.00001 -69.99628 0.00499 -0.00481 -1.10059 -0.88050 0.55866 27.51173 5.26740 11.11965 -13.89275 -1.67048 2.83809 68.55182 -38.36943 24.16506 -24.26330 1.32710 1.65391 1.09143 27.01697 -4.93603 -23.37760 2.73108 1.20339 2.45548 49.98271 -3.85052 -4.87700 -1.04402 3.60801 37.43343 21.26193 8.21122 -2.66500 -0.00003 -0.00002 0.00000 0.00000 -5.00507 -2.54300 0.00001 0.00002 -0.00000 0.00000 -59.99599 -9.23199 -0.30104 2.14400 79.99648 -0.00000 -0.00000 -4.22500 0.00002 0.00000 89.99616 0.00000 -0.00000 -2.65399 -0.00001 0.00000 69.99606 0.00477 0.00466 -8.92000 -0.00002 0.00002 79.99464 -0.00000 0.00001 -4.86300 0.00000 0.00000 89.99646 -0.00000 0.00001 -2.76501 0.00000 -0.00002 69.99641 0.00477 0.00466 -8.68899 -0.12603 -2.08697 79.99464 -0.00000 0.00001 -4.53800 0.00000 0.00000 89.99646 -0.00000 0.00001 -2.30500 0.00000 0.00000 69.99641 0.00477 0.00466 -8.39099 -0.81702 -3.75798 79.99648 -0.00000 -0.00000 -3.04400 0.00000 0.00000 89.99616 0.00000 -0.00000 -1.97500 0.00000 0.00002 69.99606 0.00477 0.00466 0.00627 0.77411 -0.00129 0.00007 -0.00001 0.00000 0.06765 7.02646 -0.01308 33.67028 -38.50098 -38.79083 
-59.50356 79.37798 -187.61980 -5.18945 1.32101 22.35214 3.79375 2.23344 2.94172 2.97747 -8.38780 9.62973 0.15658 -42.09648 -0.20755 -5.52546 9.42882 -43.13541 -0.15643 -30.51520 0.46385 -6.63094 22.43419 11.90069 -4.96540 -0.22386 3.06461 1.23621 1.22572 10.73164 0.17113 -38.09175 -0.20216 16.12451 -20.09439 -27.93730 -1.80375 -32.36681 4.32739 3.16399 36.71555 21.24682 0.09021 33.00164 -0.02603 0.56836 1.73182 3.30262 0.13433 23.97260 -0.00157 0.56127 2.11337 4.58306 -0.58348 -0.43400 0.68763 16.06424 19.39339 -132.88904 8.90122 -0.13212 -0.04597 -38.63754 -19.32914 -3.67671 25.24072 -0.36090 0.10336 -6.31560 -29.34013 -3.03566 24.02276 -0.79034 -0.03771 166.09471 -69.21303 167.16895 4.87700 -1.04399 3.60799 -41.57225 -8.45198 -7.73349 2.66500 -0.00002 -0.00001 -0.00000 0.00000 5.00531 2.54300 0.00000 0.00000 -0.00000 0.00000 59.99583 9.23200 -0.30100 2.14399 -79.99659 0.00000 0.00000 4.22499 0.00000 0.00000 -89.99631 0.00000 0.00000 2.65399 -0.00002 0.00001 -69.99628 0.00499 -0.00481 8.92000 0.00000 -0.00001 -79.99659 0.00000 0.00000 4.86299 0.00000 -0.00001 -89.99631 0.00000 0.00000 2.76500 0.00000 0.00001 -69.99628 0.00499 -0.00481 8.68900 -0.12600 -2.08699 -79.99659 0.00000 0.00000 4.53799 -0.00002 -0.00003 -89.99631 0.00000 0.00000 2.30499 0.00000 -0.00002 -69.99628 0.00499 -0.00481 8.39100 -0.81699 -3.75801 -79.99659 0.00000 0.00000 3.04400 0.00000 0.00001 -89.99631 0.00000 0.00000 1.97499 0.00002 -0.00001 -69.99628 0.00499 -0.00481 -1.26415 -0.89877 0.57966 27.23711 5.58343 11.58712 -15.21912 -1.20036 2.34538 58.88312 -29.93716 16.82094 -24.36181 1.56141 1.25613 -2.39602 21.06367 -4.55046 -23.54103 2.44217 0.94573 -5.10717 34.47953 -1.63270 -4.87700 -1.04402 3.60801 37.43343 21.26193 8.21122 -2.66500 -0.00003 -0.00002 0.00000 0.00000 -5.00507 -2.54300 0.00001 0.00002 -0.00000 0.00000 -59.99599 -9.23199 -0.30104 2.14400 79.99648 -0.00000 -0.00000 -4.22500 0.00002 0.00000 89.99616 0.00000 -0.00000 -2.65399 -0.00001 0.00000 69.99606 0.00477 0.00466 -8.92000 -0.00002 0.00002 79.99464 -0.00000 0.00001 -4.86300 0.00000 0.00000 89.99646 -0.00000 0.00001 -2.76501 0.00000 -0.00002 69.99641 0.00477 0.00466 -8.68899 -0.12603 -2.08697 79.99464 -0.00000 0.00001 -4.53800 0.00000 0.00000 89.99646 -0.00000 0.00001 -2.30500 0.00000 0.00000 69.99641 0.00477 0.00466 -8.39099 -0.81702 -3.75798 79.99648 -0.00000 -0.00000 -3.04400 0.00000 0.00000 89.99616 0.00000 -0.00000 -1.97500 0.00000 0.00002 69.99606 0.00477 0.00466 0.00643 0.77376 -0.00129 0.00007 -0.00001 0.00000 0.06031 7.03045 0.01605 32.75431 -40.56152 -42.83799 
